<svg width="20" height="20" viewBox="0 0 20 20" fill="none" xmlns="http://www.w3.org/2000/svg">
<g clip-path="url(#clip0_4631_1371)">
<path d="M9.49495 18.3463L9.99792 18.8042L10.5026 18.3482L11.711 17.2565L11.7126 17.2551L11.7823 17.1917C13.8831 15.2827 15.6869 13.6435 16.9607 12.0851C18.2573 10.4989 19.0832 8.90469 19.0832 7.08333C19.0832 4.10245 16.7307 1.75 13.7498 1.75C12.3542 1.75 11.0134 2.28813 9.99984 3.17666C8.98629 2.28813 7.64548 1.75 6.24984 1.75C3.26896 1.75 0.916504 4.10245 0.916504 7.08333C0.916504 8.9047 1.7424 10.4989 3.03909 12.0842C4.31733 13.647 6.12906 15.2898 8.23897 17.2031L8.28662 17.2463L8.2877 17.2473L9.49495 18.3463Z" stroke="black" stroke-width="1.5"/>
<path d="M9.99984 17.7917L8.7915 16.6917C4.49984 12.8 1.6665 10.2333 1.6665 7.08333C1.6665 4.51667 3.68317 2.5 6.24984 2.5C7.69984 2.5 9.0915 3.175 9.99984 4.24167C10.9082 3.175 12.2998 2.5 13.7498 2.5C16.3165 2.5 18.3332 4.51667 18.3332 7.08333C18.3332 10.2333 15.4998 12.8 11.2082 16.7L9.99984 17.7917Z" fill="#F05454"/>
</g>
<defs>
<clipPath id="clip0_4631_1371">
<rect width="20" height="20" fill="white"/>
</clipPath>
</defs>
</svg>
